<?xml version="1.0" encoding="UTF-8"?>
<svg width="700pt" height="700pt" version="1.1" viewBox="0 0 700 700" xmlns="http://www.w3.org/2000/svg">
 <g>
  <path d="m104.89 93.844c0 5.9062 4.7031 10.609 10.609 10.609h74.703c5.9062 0 10.609-4.7031 10.609-10.609s-4.7031-10.609-10.609-10.609h-74.703c-5.9062 0-10.609 4.7031-10.609 10.609z"/>
  <path d="m190.2 117.03h-74.703c-5.9062 0-10.609 4.7031-10.609 10.609s4.7031 10.609 10.609 10.609h74.703c5.9062 0 10.609-4.7031 10.609-10.609s-4.7031-10.609-10.609-10.609z"/>
  <path d="m190.2 150.83h-74.703c-5.9062 0-10.609 4.7031-10.609 10.609s4.7031 10.609 10.609 10.609h74.703c5.9062 0 10.609-4.7031 10.609-10.609s-4.7031-10.609-10.609-10.609z"/>
  <path d="m696.17 72.188c-3.6094-4.8125-9.1875-7.6562-15.203-7.6562h-4.7031v-8.5312c0-12.906-10.5-23.406-23.406-23.406h-78.859l-14.109-14c-2.7344-2.8438-6.6719-4.4844-10.719-4.4844h-51.188c-10.5 0-19.141 8.5312-19.141 19.141v84.766h-103.03c-4.1562-10.172-14.219-17.391-25.922-17.391s-21.656 7.2188-25.812 17.391h-92.203v-57.969c0-1.5312-0.32812-2.8438-0.875-4.1562-0.10938-0.21875-0.21875-0.32812-0.32812-0.54688-0.54688-1.0938-1.2031-2.0781-1.9688-2.8438 0 0 0-0.10938-0.10938-0.10938-14.109-13.234-31.391-29.531-47.141-44.188-0.54688-0.4375-1.2031-0.76562-1.75-1.0938s-0.98438-0.65625-1.5312-0.98438c-1.3125-0.54688-2.625-0.76562-4.0469-0.76562h-89.688c-5.9062 0-10.609 4.7031-10.609 10.609v176.53c0 5.9062 4.7031 10.609 10.609 10.609h136.83c5.9062 0 10.609-4.7031 10.609-10.609v-53.266h92.203c2.8438 6.8906 8.4219 12.359 15.312 15.203v80.828h-124.8c-5.7969 0-10.609 4.8125-10.609 10.609v89.141c0 5.7969 4.8125 10.609 10.609 10.609h124.8v22.094h-124.8c-5.7969 0-10.609 4.7031-10.609 10.609v89.031c0 5.7969 4.8125 10.609 10.609 10.609h124.8v116.7c-6.8906 2.8438-12.25 8.3125-15.094 15.203h-103.03v-84.766c0-10.5-8.5312-19.141-19.141-19.141h-51.188c-4.0469 0-7.9844 1.6406-10.5 4.2656l-14.328 14.328h-78.75c-12.906 0-23.406 10.5-23.406 23.406v8.6406h-4.8125c-6.0156 0-11.594 2.7344-15.312 7.6562-3.6094 4.8125-4.8125 10.938-3.0625 16.734l25.703 89.906c2.2969 8.0938 9.8438 13.781 18.156 13.891l157.5 1.5312h0.21875c5.9062 0 11.484-2.7344 15.094-7.4375 3.1719-4.0469 4.375-9.0781 3.7188-14.109v-33.578h103.14c4.1562 10.172 14.219 17.281 25.812 17.281 11.703 0 21.656-7.2188 25.812-17.281h92.203v53.266c0 5.9062 4.7031 10.609 10.609 10.609h136.94c5.9062 0 10.609-4.7031 10.609-10.609v-176.97c0-5.9062-4.7031-10.609-10.609-10.609h-89.797c-1.4219 0-2.7344 0.32812-4.0469 0.76562-0.54688 0.21875-0.98438 0.65625-1.4219 0.98438-0.54688 0.32812-1.2031 0.65625-1.75 1.0938-15.75 14.656-33.031 30.953-47.141 44.188 0 0 0 0.10938-0.10938 0.10938-0.76562 0.76562-1.4219 1.75-1.9688 2.7344-0.10938 0.21875-0.32812 0.4375-0.4375 0.65625-0.54688 1.3125-0.875 2.7344-0.875 4.1562v57.969h-92.203c-2.8438-7-8.4219-12.469-15.422-15.312v-116.48h124.91c5.7969 0 10.609-4.8125 10.609-10.609v-89.031c0-5.9062-4.8125-10.609-10.609-10.609h-124.8v-22.094h124.91c5.7969 0 10.609-4.8125 10.609-10.609v-89.141c0-5.7969-4.8125-10.609-10.609-10.609h-124.91v-80.828c6.8906-2.8438 12.359-8.3125 15.203-15.203h103.14v33.578c-0.65625 5.0312 0.54688 10.062 3.7188 14.109 3.6094 4.7031 9.1875 7.4375 15.094 7.4375h0.21875l157.5-1.5312c8.4219-0.10938 15.859-5.7969 18.156-13.891l25.703-89.906c1.5312-5.6875 0.4375-11.812-3.1719-16.625zm-511.33-31.938c3.2812 3.0625 6.5625 6.125 9.7344 9.1875h-9.7344zm25.812 141.64h-115.61v-155.53h68.578v33.578c0 5.9062 4.7031 10.609 10.609 10.609h36.531v111.34zm-164.17 481.36-24.609-85.641h154.44l23.297 87.172zm153.45-79.297-3.6094-13.453c-2.1875-8.3125-9.8438-14.219-18.484-14.219h-132.78v-8.6406c0-1.2031 0.98438-2.1875 2.1875-2.1875h79.625c5.0312 0 9.9531-2.0781 13.453-5.5781l13.125-13.016h46.484zm315.22-51.953v9.1875h-9.7344c3.2812-3.0625 6.4531-6.125 9.7344-9.1875zm-25.812 30.406h36.531c5.9062 0 10.609-4.7031 10.609-10.609v-33.578h68.578v155.42h-115.72zm-139.45-440.67c3.7188 0 6.7812 3.0625 6.7812 6.7812 0 3.6094-2.9531 6.5625-6.5625 6.6719h-0.10938-0.21875c-3.7188-0.10938-6.6719-3.0625-6.6719-6.7812 0-3.6094 3.0625-6.6719 6.7812-6.6719zm0.21875 505.31c-3.7188 0-6.7812-3.0625-6.7812-6.7812 0-3.6094 2.9531-6.5625 6.5625-6.6719h0.10938 0.21875c3.7188 0 6.6719 3.0625 6.6719 6.7812 0 3.6094-3.0625 6.6719-6.7812 6.6719zm124.69-238.33v67.812h-124.69-0.10938-0.10938-124.69v-67.812zm0-132.34v67.922h-129.28c-0.21875 0-0.32812-0.10938-0.54688-0.10938s-0.32812 0.10938-0.54688 0.10938h-119.22v-67.922h124.69 0.10938 0.10938zm25.266-221.16h46.484l13.125 13.016c3.5 3.5 8.4219 5.5781 13.453 5.5781h79.625c1.2031 0 2.1875 0.98438 2.1875 2.1875v8.6406h-132.89c-8.6406 0-16.188 5.7969-18.484 14.219l-3.6094 13.453v-57.094zm153.45 136.28-153.12 1.4219 23.297-87.172h154.44z"/>
  <path d="m584.5 574.98h-74.703c-5.9062 0-10.609 4.7031-10.609 10.609s4.7031 10.609 10.609 10.609h74.703c5.9062 0 10.609-4.7031 10.609-10.609s-4.7031-10.609-10.609-10.609z"/>
  <path d="m584.5 608.78h-74.703c-5.9062 0-10.609 4.7031-10.609 10.609s4.7031 10.609 10.609 10.609h74.703c5.9062 0 10.609-4.7031 10.609-10.609s-4.7031-10.609-10.609-10.609z"/>
  <path d="m584.5 642.58h-74.703c-5.9062 0-10.609 4.7031-10.609 10.609s4.7031 10.609 10.609 10.609h74.703c5.9062 0 10.609-4.7031 10.609-10.609s-4.7031-10.609-10.609-10.609z"/>
  <path d="m256.92 271.14c-5.9062 0-10.609 4.7031-10.609 10.609v17.281c0 5.9062 4.7031 10.609 10.609 10.609s10.609-4.7031 10.609-10.609v-17.281c0-5.9062-4.8125-10.609-10.609-10.609z"/>
  <path d="m295.75 271.14c-5.9062 0-10.609 4.7031-10.609 10.609v17.281c0 5.9062 4.7031 10.609 10.609 10.609s10.609-4.7031 10.609-10.609v-17.281c0-5.9062-4.7031-10.609-10.609-10.609z"/>
  <path d="m334.58 271.14c-5.9062 0-10.609 4.7031-10.609 10.609v17.281c0 5.9062 4.7031 10.609 10.609 10.609s10.609-4.7031 10.609-10.609v-17.281c0-5.9062-4.7031-10.609-10.609-10.609z"/>
  <path d="m399.88 303.3c7.1094 0 12.906-5.7969 12.906-12.906s-5.7969-12.906-12.906-12.906c-7.2188 0-13.016 5.7969-13.016 12.906s5.7969 12.906 13.016 12.906z"/>
  <path d="m453.69 290.39c0 7.1289-5.8281 12.906-13.016 12.906s-13.016-5.7773-13.016-12.906 5.8281-12.906 13.016-12.906 13.016 5.7773 13.016 12.906"/>
  <path d="m256.92 441.88c5.9062 0 10.609-4.7031 10.609-10.609v-17.281c0-5.9062-4.7031-10.609-10.609-10.609s-10.609 4.7031-10.609 10.609v17.281c0 5.7969 4.7031 10.609 10.609 10.609z"/>
  <path d="m295.75 441.88c5.9062 0 10.609-4.7031 10.609-10.609v-17.281c0-5.9062-4.7031-10.609-10.609-10.609s-10.609 4.7031-10.609 10.609v17.281c0 5.7969 4.7031 10.609 10.609 10.609z"/>
  <path d="m334.58 441.88c5.9062 0 10.609-4.7031 10.609-10.609v-17.281c0-5.9062-4.7031-10.609-10.609-10.609s-10.609 4.7031-10.609 10.609v17.281c0 5.7969 4.8125 10.609 10.609 10.609z"/>
  <path d="m399.88 435.53c7.1094 0 12.906-5.6875 12.906-12.906 0-7.1094-5.7969-12.906-12.906-12.906-7.2188 0-13.016 5.7969-13.016 12.906-0.10938 7.2188 5.7969 12.906 13.016 12.906z"/>
  <path d="m440.67 435.53c7.2188 0 13.016-5.6875 13.016-12.906 0-7.1094-5.7969-12.906-13.016-12.906s-13.016 5.7969-13.016 12.906c0 7.2188 5.7969 12.906 13.016 12.906z"/>
 </g>
</svg>
